<?xml version="1.0" encoding="utf-8"?>
<!-- Generator: Adobe Illustrator 21.0.0, SVG Export Plug-In . SVG Version: 6.00 Build 0)  -->
<svg version="1.1" id="Layer_1" xmlns="http://www.w3.org/2000/svg" xmlns:xlink="http://www.w3.org/1999/xlink" x="0px" y="0px"
	 viewBox="0 0 102 32" style="enable-background:new 0 0 102 32;" xml:space="preserve">
<style type="text/css">
	.st0{fill:#FFFFFF;}
</style>
<path class="st0" d="M20.8,8.2C17.9,5.3,14.1,3.7,10,3.7c0,0-0.1,0-0.1,0c0,0,0-0.1,0-0.1l0.9-2.7C9.8,0.8,4.4,1,1,7l0,0
	c0.8,0.2,3.4,0.7,4.2,0.2c0,0,0,0,0.1,0c0,0,0,0,0.1,0c0,0,0,0.1,0,0.1C4.5,7.9,2,7.5,1.1,7.3c0.8,0.6,3.4,2.7,5.8,2.4
	c1-0.1,1.9-0.6,2.5-1.5c0,0,0.1-0.1,0.2,0c0,0,0.1,0.1,0,0.2c-0.5,0.6-1,1.1-1.6,1.3c2.3,1.2,2.9,3.6,3,3.8c0.1,0,0.1,0,0.2,0
	c3.5,0,6.4,2.9,6.4,6.4c0,0,0,0.2,0.1,0.2l0.1,0.5c0,0,0,0.1,0,0.1c0.3,3.1-1.8,5.8-4.8,6.2c0,0,0,0,0,0c-0.2,0-0.4,0-0.7,0
	c-1.2,0-2.4-0.4-3.4-1.2c-1.2-0.9-1.9-2.2-2.1-3.7c-0.3-2.4,1.4-4.6,3.9-4.9c2.4-0.3,4.6,1.4,4.9,3.9c0.2,1.5-0.6,2.9-1.9,3.6
	c2.1-0.5,3.7-2.5,3.7-4.8c0-3.4-2.8-6.2-6.2-6.2c-4.3,0-7.8,3.5-7.8,7.8c0,5.4,4.4,9.7,9.7,9.7c3.3,0,6.3-1.3,8.6-3.6
	c2.3-2.3,3.6-5.4,3.6-8.6C25.3,14.9,23.7,11.1,20.8,8.2z M4.8,6.3c-0.5,0-0.9-0.4-1-0.9c0,0,0-0.1,0-0.1c0,0,0-0.1,0-0.1
	c0.1-0.5,0.5-0.9,1-0.9c0.6,0,1,0.5,1,1C5.9,5.8,5.4,6.3,4.8,6.3z"/>
<g>
	<g>
		<path class="st0" d="M39.2,6.5c-0.5,0-0.9,0.2-1.2,0.5c-0.3,0.3-0.5,0.7-0.5,1.2c0,0.5,0.2,0.9,0.5,1.2c0.3,0.3,0.7,0.5,1.2,0.5
			c0.5,0,0.9-0.2,1.2-0.5c0.3-0.3,0.5-0.7,0.5-1.2c0-0.5-0.2-0.9-0.5-1.2C40,6.7,39.6,6.5,39.2,6.5z"/>
		<rect x="37.9" y="10.6" class="st0" width="2.6" height="11.2"/>
	</g>
	<path class="st0" d="M50.9,11.5c-0.2-0.2-0.5-0.4-0.8-0.5c-0.8-0.4-1.6-0.6-2.5-0.6c-1.6,0-3,0.6-4.1,1.7c-1.1,1.1-1.7,2.5-1.7,4.1
		c0,1.6,0.6,3,1.7,4.2c1.1,1.1,2.5,1.7,4.1,1.7c0.9,0,1.7-0.2,2.5-0.6c0.3-0.1,0.6-0.3,0.8-0.5v0.8h2.6v-15h-2.6V11.5z M50.5,18
		c-0.3,0.5-0.7,0.9-1.2,1.2c-0.5,0.3-1.1,0.4-1.7,0.4c-0.6,0-1.1-0.1-1.6-0.4c-0.5-0.3-0.9-0.7-1.2-1.2c-0.3-0.5-0.5-1.1-0.5-1.7
		c0-0.6,0.1-1.1,0.4-1.7c0.3-0.5,0.7-0.9,1.2-1.2c0.5-0.3,1-0.4,1.6-0.4c0.9,0,1.7,0.3,2.3,1c0.6,0.6,0.9,1.4,0.9,2.4
		C51,16.9,50.8,17.5,50.5,18z"/>
	<path class="st0" d="M62.7,15.9c0,1.5-0.1,2-0.2,2.2c-0.1,0.4-0.4,0.8-0.8,1c-0.4,0.3-0.9,0.4-1.4,0.4c-0.6,0-1.1-0.1-1.5-0.4
		c-0.4-0.3-0.6-0.6-0.8-1.1c-0.1-0.2-0.2-0.8-0.2-2.1v-5.3h-2.6V16c0,1.5,0.2,2.6,0.5,3.4c0.4,0.8,0.9,1.5,1.7,1.9
		c0.7,0.5,1.7,0.7,2.8,0.7c1.1,0,2-0.2,2.8-0.7c0.8-0.5,1.3-1.1,1.7-1.9c0.4-0.8,0.5-1.9,0.5-3.4v-5.5h-2.6V15.9z"/>
	<polygon class="st0" points="77.4,10.6 73.5,10.6 69.9,13.8 69.9,6.8 67.3,6.8 67.3,21.8 69.9,21.8 69.9,18.2 73.9,21.8 77.7,21.8 
		71.2,16 	"/>
	<path class="st0" d="M85.7,11.5c-0.2-0.2-0.5-0.4-0.8-0.5c-0.8-0.4-1.6-0.6-2.5-0.6c-1.6,0-3,0.6-4.1,1.7c-1.1,1.1-1.7,2.5-1.7,4.1
		c0,1.6,0.6,3,1.7,4.2c1.1,1.1,2.5,1.7,4.1,1.7c0.9,0,1.7-0.2,2.5-0.6c0.3-0.1,0.6-0.3,0.8-0.5v0.8h2.6V10.6h-2.6V11.5z M85.4,18
		c-0.3,0.5-0.7,0.9-1.2,1.2c-0.5,0.3-1.1,0.4-1.7,0.4c-0.6,0-1.1-0.1-1.6-0.4c-0.5-0.3-0.9-0.7-1.2-1.2c-0.3-0.5-0.5-1.1-0.5-1.7
		c0-0.6,0.1-1.1,0.4-1.7c0.3-0.5,0.7-0.9,1.2-1.2c0.5-0.3,1-0.4,1.6-0.4c0.9,0,1.7,0.3,2.3,1c0.6,0.6,0.9,1.4,0.9,2.4
		C85.8,16.9,85.6,17.5,85.4,18z"/>
	<polygon class="st0" points="97.5,10.6 94.6,17.3 91.7,10.6 88.9,10.6 93.2,20.4 91,25.5 93.8,25.5 100.3,10.6 	"/>
</g>
</svg>
