<svg id="Layer_5" enable-background="new 0 0 64 64" height="512" viewBox="0 0 64 64" width="512" xmlns="http://www.w3.org/2000/svg" xmlns:xlink="http://www.w3.org/1999/xlink"><linearGradient id="SVGID_1_" gradientUnits="userSpaceOnUse" x1="32" x2="32" y1="63" y2="1"><stop offset="0" stop-color="#9f2fff"/><stop offset="1" stop-color="#0bb1d3"/></linearGradient><path d="m18 7h-2v-2h2zm-4-2h-2v2h2zm-4 0h-2v2h2zm-9 27v-16c0-1.654 1.346-3 3-3h1v-9c0-1.654 1.346-3 3-3h44c1.654 0 3 1.346 3 3v23.798c.821-.512 1.765-.798 2.758-.798 2.89 0 5.242 2.352 5.242 5.243 0 1.4-.545 2.716-1.535 3.707l-6.465 6.464v17.586c0 1.654-1.346 3-3 3h-44c-1.654 0-3-1.346-3-3v-25h-1c-1.654 0-3-1.346-3-3zm48-5h-14v6h14zm-14.586 24 1.586 1.586 16.586-16.586-1.586-1.586zm-1.235 5.821 3.7-.528-3.172-3.172zm22.407-17.821-1.586-1.586-16.586 16.586 1.586 1.586zm-.121-9.05-3.051 3.05 4.586 4.586 3.051-3.051c.603-.603.949-1.438.949-2.292 0-1.788-1.454-3.243-3.242-3.243-.867 0-1.681.337-2.293.95zm-48.465-25.95v5h46v-5c0-.551-.448-1-1-1h-44c-.552 0-1 .449-1 1zm0 9h19c1.654 0 3 1.346 3 3v16c0 1.654-1.346 3-3 3h-19v25c0 .552.448 1 1 1h44c.552 0 1-.448 1-1v-15.586l-13.528 13.528-8.65 1.236 1.236-8.65 15.528-15.528h-14.586v-10h18v6.586l2-2v-18.586h-46zm-4 19c0 .551.448 1 1 1h22c.552 0 1-.449 1-1v-16c0-.551-.448-1-1-1h-22c-.552 0-1 .449-1 1zm14.948-13.684-1.896-.633-4 12 1.896.633zm2.759 10.391 4.707-4.707-4.707-4.707-1.414 1.414 3.293 3.293-3.293 3.293zm-10-1.414-3.293-3.293 3.293-3.293-1.414-1.414-4.707 4.707 4.707 4.707zm40.293-4.293h-18v-10h18zm-2-8h-14v6h14zm-40 44h16v-2h-16zm0-4h20v-2h-20zm2-4h2v-2h2v-2h-2v-10h-2v10h-2v2h2zm8 0h2v-10h2v-2h-2v-2h-2v2h-2v2h2zm10-14h-2v6h-2v2h2v6h2v-6h2v-2h-2zm-2 22h2v-2h-2zm24-2h-2v2h2zm0-8h-2v2h2zm0 4h-2v2h2z" fill="url(#SVGID_1_)"/></svg>