<svg width="346" height="275" viewBox="0 0 346 275" fill="none" xmlns="http://www.w3.org/2000/svg">
<rect y="9" width="346" height="255" rx="15" fill="url(#paint0_linear_711_9)"/>
<path d="M59.9994 23.262C49.7578 24.3224 42.227 30.592 39.3687 40.3939C38.4599 43.4243 38.1673 46.5685 38.4849 49.7462C39.5632 60.2716 47.23 68.1116 51.8285 72.7998C52.6332 73.6191 53.3563 74.3483 54.1341 75.2389L56.2181 77.4778C58.285 79.6746 60.6376 82.1652 61.4337 83.4539C61.7129 84.0533 62.1098 85.1141 62.6369 86.4534C65.073 92.6565 69.6143 104.184 75.8172 112.67C78.3193 116.09 81.7838 120.356 84.2652 123.355C83.5739 130.693 82.517 144.188 83.3503 152.236C84.8133 166.367 88.9185 177.411 96.3799 187.127C99.1263 190.59 107.507 201.15 119.704 199.887C124.033 199.438 131.052 197.002 131.885 186.062C141.688 196.324 157.759 208.8 181.392 216.35C181.392 216.35 133.89 171.288 123.249 141.232C123.249 141.232 115.992 150.289 110.845 167.777C108.252 162.813 106.702 157.074 105.959 149.896C105.225 142.808 106.702 126.641 107.342 121.01L107.906 116.11L104.705 112.357C104.652 112.283 98.1064 104.652 94.1794 99.2769C89.7071 93.1589 85.8627 83.3733 83.7998 78.1256C82.7923 75.5678 82.0177 73.7214 81.3417 72.4889C78.9199 68.4094 75.6336 64.9466 72.7461 61.8865L71.1387 60.1561C70.32 59.2012 69.2557 58.1065 68.055 56.8826C65.7171 54.4969 61.3645 50.0507 61.1557 46.9303L62.3227 45.9169L62.3402 45.8704C71.3271 44.9399 83.564 50.1208 88.1767 52.0768C89.6818 52.7093 90.7841 53.1399 91.3638 53.3312L93.4179 53.9888L97.2954 53.7213C102.36 53.3111 117.755 52.0802 129.057 55.2975C149.67 61.161 161.434 67.9486 174.054 81.2551C203.862 112.696 218.136 155.933 218.272 156.365L220.345 162.599L226.735 163.968C226.958 164.025 244.859 168.015 262.555 181.459C242.783 188.579 236.742 199.194 236.742 199.194C236.742 199.194 243.209 209.127 270.609 222.823C287.176 231.105 296.386 237.292 310.42 248.693C310.42 248.693 294.784 221.746 274.694 201.067C287.765 195.337 304.15 191.367 304.15 191.367L292.384 178.17C273.02 156.444 249.084 146.946 237.8 143.453C232.565 129.53 217.426 93.9625 190.556 65.6218C175.177 49.4019 159.663 40.3561 135.271 33.41C120.827 29.3071 104.08 30.3731 96.6348 30.9612C89.765 28.062 74.514 21.7592 59.9994 23.262ZM110.604 63.724C110.604 63.724 105.659 64.2361 100.153 66.2343L117.889 85.7983C121.545 79.7299 120.863 73.15 120.863 73.15C120.863 73.15 117.261 65.8912 110.604 63.724Z" fill="#F3F9FA"/>
<defs>
<linearGradient id="paint0_linear_711_9" x1="173" y1="9" x2="173" y2="264" gradientUnits="userSpaceOnUse">
<stop stop-color="#65BCE9" stop-opacity="0.99"/>
<stop offset="0.65625" stop-color="#086696"/>
<stop offset="1" stop-color="#034364"/>
</linearGradient>
</defs>
</svg>
